<?xml version="1.0" encoding="UTF-8" standalone="no"?>
<!-- Created with Inkscape (http://www.inkscape.org/) -->

<svg
   width="45.948269mm"
   height="42.665585mm"
   viewBox="0 0 45.948269 42.665585"
   version="1.1"
   id="svg1"
   xml:space="preserve"
   xmlns="http://www.w3.org/2000/svg"
   xmlns:svg="http://www.w3.org/2000/svg"><defs
     id="defs1" /><g
     id="layer1"
     transform="translate(-84.396093,-124.47908)"><path
       style="fill:#000000"
       d="m 103.57854,167.07682 c -0.47294,-0.0447 -0.94224,-0.13434 -1.04288,-0.1992 -0.14902,-0.096 -0.16556,-0.4612 -0.0891,-1.96727 0.0516,-1.01714 0.16213,-1.99914 0.24554,-2.18221 l 0.15166,-0.33286 1.45841,0.0886 c 1.52217,0.0925 1.87584,0.23123 1.70746,0.67004 -0.0828,0.21586 -0.20947,0.23191 -1.24839,0.15816 -1.25024,-0.0887 -1.31498,-0.0567 -1.31498,0.65159 0,0.28012 0.0617,0.32086 0.49609,0.32753 0.27285,0.004 0.73422,0.0498 1.02526,0.10147 0.45009,0.0798 0.52917,0.14292 0.52917,0.42232 0,0.32241 -0.0196,0.32848 -1.05833,0.32848 h -1.05834 l -0.0407,0.56224 -0.0407,0.56224 0.70214,0.008 c 0.38618,0.004 0.94026,0.0498 1.23131,0.10146 0.45009,0.0798 0.52916,0.14293 0.52916,0.42232 0,0.30397 -0.0494,0.32962 -0.66146,0.34362 -0.3638,0.008 -1.04841,-0.0214 -1.52135,-0.0661 z m 5.29167,-0.24685 c -0.34402,-0.17186 -0.46302,-0.31631 -0.46302,-0.56204 0,-0.4086 0.44987,-0.51374 0.88728,-0.20737 0.56737,0.3974 1.6924,0.19116 1.6924,-0.31025 0,-0.35392 -0.23342,-0.49766 -1.15327,-0.71016 -1.0947,-0.2529 -1.45903,-0.50947 -1.57101,-1.10636 -0.18287,-0.97482 0.66417,-1.68902 1.89541,-1.59815 0.73814,0.0545 1.22575,0.36035 1.22575,0.76888 0,0.33228 -0.4676,0.44342 -0.8218,0.19533 -0.53969,-0.37802 -1.42716,-0.17763 -1.42716,0.32225 0,0.31167 0.23771,0.43773 1.22523,0.64976 1.02235,0.2195 1.5529,0.66944 1.5529,1.31694 0,0.9269 -0.69666,1.47303 -1.87859,1.47268 -0.40235,-1.2e-4 -0.89841,-0.0988 -1.16412,-0.23151 z m -10.291496,-1.12428 c -0.14099,-0.38199 -0.32754,-0.91492 -0.41456,-1.1843 -0.14985,-0.4639 -0.52508,-0.74052 -0.78587,-0.57935 -0.0645,0.0398 -0.18846,0.35543 -0.27555,0.70131 -0.18398,0.73065 -0.34521,0.96313 -0.66794,0.96313 -0.3787,0 -0.54575,-0.3067 -0.40364,-0.7411 0.069,-0.21086 0.34003,-1.08249 0.60233,-1.93695 0.56707,-1.84719 0.65119,-1.92454 1.75145,-1.61048 1.44372,0.4121 2.018606,0.89765 2.018606,1.70491 0,0.4489 -0.596266,1.10422 -1.049526,1.15347 l -0.37803,0.0411 0.36715,0.92359 c 0.20193,0.50798 0.33817,0.99911 0.30275,1.09141 -0.0354,0.0923 -0.23234,0.16782 -0.43762,0.16782 -0.32948,0 -0.40325,-0.0814 -0.62955,-0.69454 z m 0.74245,-2.78055 c 0.0367,-0.31888 -0.0318,-0.39975 -0.52918,-0.62548 -0.77733,-0.35277 -0.8579,-0.33646 -1.0383,0.21014 -0.21306,0.64558 0.0543,0.84751 1.06236,0.80233 0.40141,-0.018 0.46862,-0.0695 0.50512,-0.38699 z m 15.922806,2.72344 c -1.13568,-0.55964 -1.68661,-2.29674 -1.09575,-3.45492 0.47835,-0.93765 1.95777,-1.38636 2.9238,-0.8868 0.99795,0.51606 1.59082,2.12081 1.18208,3.1996 -0.43148,1.13881 -1.89216,1.69303 -3.01013,1.14212 z m 1.37898,-0.70876 c 0.51396,-0.19541 0.70489,-0.50657 0.70972,-1.1566 0.011,-1.47764 -1.08148,-2.35163 -2.01832,-1.61472 -0.4242,0.33368 -0.55213,0.88846 -0.35575,1.5428 0.16915,0.5636 0.46302,0.97623 0.85856,1.20553 0.32832,0.19033 0.36303,0.19132 0.80579,0.023 z m -23.885603,-0.97889 c -0.155185,-0.18699 -0.139663,-0.44213 0.07003,-1.15121 0.04365,-0.14758 -0.154969,-0.37794 -0.620493,-0.71967 l -0.684687,-0.5026 -0.503404,0.28972 c -0.753548,0.43369 -1.178591,0.34331 -1.178591,-0.25061 0,-0.13897 3.415448,-2.4349 3.807089,-2.5592 0.157308,-0.0499 0.378588,0.0168 0.57018,0.17194 l 0.313104,0.25354 -0.242397,1.16625 c -0.55244,2.65798 -0.792368,3.42352 -1.086115,3.46549 -0.151887,0.0217 -0.352012,-0.0519 -0.44472,-0.16365 z m 0.579201,-3.0381 c 0.114304,-0.39319 0.207825,-0.75028 0.207825,-0.79353 0,-0.0433 -0.305524,0.14086 -0.678942,0.40914 l -0.678942,0.48777 0.381286,0.3051 c 0.209707,0.16781 0.42171,0.3054 0.471117,0.30576 0.04941,3.6e-4 0.183353,-0.32105 0.297656,-0.71424 z m 27.282462,1.21099 c -1.28306,-1.96389 -1.31575,-2.03 -1.15358,-2.33302 0.16957,-0.31684 1.47887,-1.19077 2.01385,-1.3442 0.59329,-0.17016 1.24346,0.13992 1.52314,0.72642 0.21032,0.44104 0.21044,0.49939 0.002,0.93681 -0.2512,0.52677 -0.28318,0.49744 0.9435,0.86497 0.7054,0.21134 0.88439,0.41294 0.68968,0.77676 -0.19412,0.36271 -0.41677,0.34586 -1.6367,-0.1239 -0.79538,-0.30627 -1.0893,-0.36564 -1.28682,-0.25992 -0.33893,0.18138 -0.33159,0.21742 0.20702,1.01721 0.25466,0.37815 0.46302,0.71541 0.46302,0.74946 0,0.13881 -0.42862,0.47769 -0.60419,0.47769 -0.10363,0 -0.62597,-0.66973 -1.16076,-1.48828 z m 1.50036,-2.27219 c 0,-0.49641 -0.2964,-0.65181 -0.81526,-0.42744 -0.24283,0.105 -0.55571,0.27822 -0.69528,0.38491 -0.2489,0.19026 -0.24807,0.20323 0.0434,0.67483 l 0.29717,0.48084 0.58499,-0.40248 c 0.40919,-0.28153 0.58498,-0.49509 0.58498,-0.71066 z m 3.04447,-1.84031 c -1.35334,-1.8025 -1.54556,-2.2533 -1.11362,-2.61178 0.17668,-0.14663 0.56952,-0.11627 2.41186,0.1864 1.21045,0.19885 2.25161,0.41235 2.31369,0.47443 0.0621,0.0621 0.093,0.25369 0.0686,0.4258 -0.0413,0.2916 -0.0952,0.31065 -0.79228,0.27975 l -0.748,-0.0332 -0.41688,0.73866 -0.41688,0.73867 0.33806,0.44322 c 0.18593,0.24376 0.33806,0.52457 0.33806,0.62402 0,0.2281 -0.26446,0.4983 -0.48773,0.4983 -0.0936,0 -0.76633,-0.79394 -1.49489,-1.76432 z m 1.04888,-0.96433 c 0.15567,-0.26383 0.26573,-0.49492 0.24458,-0.51353 -0.0799,-0.0703 -1.46828,-0.33302 -1.51466,-0.28664 -0.0392,0.0392 0.89696,1.27757 0.96705,1.27935 0.011,2.8e-4 0.14737,-0.21535 0.30303,-0.47918 z m -38.462722,2.30532 c -0.206271,-0.20627 -0.202977,-0.56898 0.0066,-0.72831 0.09095,-0.0691 0.46302,-0.23381 0.826822,-0.36593 0.363803,-0.13212 0.678104,-0.25328 0.698448,-0.26923 0.02034,-0.016 -0.118193,-0.44767 -0.307858,-0.95936 l -0.344847,-0.93035 -0.809977,0.31743 c -0.919567,0.36038 -1.286286,0.31699 -1.286286,-0.15216 0,-0.38112 0.13234,-0.45322 2.411545,-1.31386 1.416685,-0.53495 1.716889,-0.60852 1.89154,-0.46357 0.38753,0.32162 0.178296,0.69913 -0.532773,0.96126 -0.363802,0.13411 -0.709331,0.29076 -0.767843,0.34811 -0.05851,0.0573 0.05337,0.50331 0.248617,0.99104 0.279521,0.69823 0.400588,0.86821 0.569405,0.79945 1.149373,-0.46812 1.319749,-0.5053 1.527045,-0.33326 0.520523,0.432 0.276815,0.62366 -1.848667,1.45388 -1.131559,0.44198 -2.072153,0.80361 -2.090208,0.80361 -0.01806,0 -0.104266,-0.0714 -0.191578,-0.15875 z m 13.731872,-2.50682 c -0.25466,-0.0738 -0.59696,-0.25871 -0.76067,-0.41098 -0.63181,-0.58767 -0.17562,-0.9631 0.62411,-0.51362 0.58479,0.32867 1.09539,0.36374 1.32191,0.0908 0.3031,-0.36521 0.0925,-0.64383 -0.72263,-0.95628 -1.32231,-0.50683 -1.71487,-1.23588 -1.06948,-1.98618 0.28875,-0.3357 0.40125,-0.37118 1.17673,-0.37118 0.65756,0 0.92239,0.0587 1.13594,0.25201 0.61488,0.55647 0.17056,1.04478 -0.55058,0.60508 -0.51877,-0.3163 -0.73195,-0.32677 -1.03677,-0.0509 -0.36118,0.32686 -0.16896,0.54453 0.75131,0.85078 0.94477,0.3144 1.37909,0.73881 1.37909,1.34762 0,0.44376 -0.62569,1.1615 -1.01508,1.16441 -0.13293,0.001 -0.36075,0.0267 -0.50627,0.0572 -0.14552,0.0305 -0.47294,-0.005 -0.72761,-0.0787 z m -5.248256,-0.19025 c -0.0781,-0.20339 0.99234,-3.12357 1.36565,-3.72569 0.11016,-0.17768 0.31539,-0.29766 0.50917,-0.29766 0.19378,0 0.39902,0.11998 0.50917,0.29766 0.37331,0.60212 1.443696,3.5223 1.36566,3.72569 -0.15888,0.41403 -0.6243,0.2419 -0.85939,-0.31784 l -0.22169,-0.52782 h -0.79375 -0.79375 l -0.22168,0.52782 c -0.2351,0.55974 -0.70051,0.73187 -0.85939,0.31784 z m 2.26171,-1.93975 c -0.0517,-0.16371 -0.16318,-0.49829 -0.24779,-0.74351 l -0.15383,-0.44585 -0.16744,0.55884 c -0.0921,0.30736 -0.19932,0.64194 -0.23829,0.7435 -0.0527,0.13739 0.0536,0.18467 0.41522,0.18467 0.44374,0 0.47791,-0.0259 0.39213,-0.29765 z m 6.191216,0.0753 0.0365,-2.09271 h 0.33073 c 0.3133,0 0.3328,0.0436 0.37011,0.82682 l 0.0394,0.82682 h 0.91342 0.91341 l 0.0394,-0.82682 c 0.0373,-0.78325 0.0568,-0.82682 0.37011,-0.82682 h 0.33073 v 2.05052 2.05052 h -0.33073 c -0.31625,0 -0.33244,-0.0391 -0.36984,-0.89297 l -0.0391,-0.89297 h -0.91395 -0.91396 l -0.0391,0.89297 c -0.038,0.8668 -0.0499,0.89421 -0.40633,0.93516 l -0.36721,0.0422 z m 4.25618,1.88821 c -0.10465,-0.2727 0.0454,-0.47519 0.35217,-0.47519 0.23861,0 0.25678,-0.10295 0.25678,-1.45521 0,-1.37451 -0.0149,-1.45521 -0.26874,-1.45521 -0.32823,0 -0.50129,-0.37925 -0.24664,-0.54049 0.21032,-0.13317 1.44593,-0.1617 1.76133,-0.0407 0.35227,0.13518 0.25905,0.58116 -0.12148,0.58116 h -0.33072 v 1.44601 c 0,1.39884 0.01,1.44738 0.29765,1.48828 0.19537,0.0277 0.29766,0.13319 0.29766,0.30686 0,0.23673 -0.10117,0.26868 -0.96103,0.30349 -0.75662,0.0306 -0.97718,-0.003 -1.03698,-0.15903 z m 3.97806,-0.11459 c -0.0438,-0.17464 -0.0608,-0.95243 -0.0377,-1.72841 l 0.042,-1.41088 -0.69453,2.8e-4 c -0.64443,2.6e-4 -0.69453,-0.0225 -0.69453,-0.31629 0,-0.43053 0.18701,-0.47718 1.91285,-0.47718 1.16122,0 1.53074,0.0439 1.65763,0.19676 0.30678,0.36965 0.0585,0.59699 -0.65196,0.59699 h -0.66166 l -0.037,1.68672 -0.037,1.68672 -0.35919,0.0414 c -0.28591,0.033 -0.37544,-0.0234 -0.43888,-0.27612 z m 2.62742,0.0909 c -0.0781,-0.20339 0.99234,-3.12357 1.36565,-3.72569 0.11015,-0.17768 0.31539,-0.29766 0.50917,-0.29766 0.19378,0 0.39901,0.11998 0.50917,0.29766 0.37331,0.60212 1.4437,3.5223 1.36565,3.72569 -0.15888,0.41403 -0.62429,0.2419 -0.85938,-0.31784 l -0.22169,-0.52782 h -0.79375 -0.79375 l -0.22169,0.52782 c -0.23509,0.55974 -0.7005,0.73187 -0.85938,0.31784 z m 2.26171,-1.93975 c -0.0517,-0.16371 -0.16318,-0.49829 -0.24779,-0.74351 l -0.15384,-0.44585 -0.16743,0.55884 c -0.0921,0.30736 -0.19932,0.64194 -0.2383,0.7435 -0.0527,0.13739 0.0536,0.18467 0.41523,0.18467 0.44374,0 0.4779,-0.0259 0.39213,-0.29765 z m 6.99016,-0.0847 c -0.76304,-0.30309 -0.89003,-0.44634 -0.70392,-0.79408 0.18702,-0.34946 0.19939,-0.34837 0.99979,0.0881 0.44447,0.24238 0.67532,0.45835 0.70373,0.65836 0.0511,0.35992 -0.18502,0.37117 -0.9996,0.0476 z m -31.184152,-4.05002 c -2.09442,-3.15538 -2.614262,-6.86013 -1.444985,-10.29795 1.339572,-3.9385 4.992791,-7.30097 9.575527,-8.81342 3.48184,-1.14913 7.74087,-1.22112 11.32054,-0.19135 2.55952,0.7363 5.59139,2.53203 7.25818,4.29892 2.50855,2.6592 3.63768,5.56847 3.47596,8.95603 -0.10837,2.27008 -0.84772,4.44684 -2.10505,6.19765 l -0.41532,0.57832 H 107.67002 94.079267 Z m -8.538212,-0.26399 v -0.46302 h 2.910417 2.910417 v 0.46302 0.46302 h -2.910417 -2.910417 z m 39.158334,-0.13229 v -0.46302 h 2.84427 2.84427 v 0.46302 0.46302 h -2.84427 -2.84427 z m -38.033855,-5.29662 c -0.727604,-0.0939 -1.39733,-0.17586 -1.488281,-0.18211 -0.253432,-0.0174 -0.212181,-0.92776 0.04654,-1.02704 0.198883,-0.0763 2.850396,0.14449 3.664892,0.3052 0.335569,0.0662 0.367207,0.11952 0.330729,0.5572 -0.03972,0.47657 -0.04946,0.48425 -0.635649,0.50075 -0.327422,0.009 -1.190625,-0.0601 -1.918231,-0.154 z m 39.834675,-0.21835 c -0.0464,-0.23193 -0.0317,-0.47434 0.0327,-0.53869 0.0644,-0.0644 0.99394,-0.21055 2.06573,-0.32488 2.1382,-0.22808 2.18002,-0.21808 2.18417,0.52205 0.002,0.42382 -0.0175,0.43019 -1.95446,0.62576 -2.16342,0.21844 -2.22918,0.21041 -2.32811,-0.28424 z m -39.162449,-6.17048 c -1.303765,-0.48613 -2.396023,-0.96049 -2.427239,-1.05413 -0.11362,-0.34086 0.101386,-0.82038 0.367842,-0.82038 0.267219,0 5.009355,1.68649 5.192293,1.84658 0.05553,0.0486 0.03482,0.27807 -0.04601,0.50995 -0.105974,0.30399 -0.226388,0.41884 -0.431684,0.41172 -0.156594,-0.005 -1.351432,-0.40762 -2.655198,-0.89374 z m 38.002859,0.31674 c -0.28688,-0.62964 -0.39388,-0.57148 3.88095,-2.10944 1.39368,-0.50141 1.5487,-0.47714 1.60289,0.25096 0.0258,0.34599 -0.0433,0.3815 -2.46707,1.26836 -1.37146,0.50183 -2.57825,0.91241 -2.68175,0.91241 -0.10349,0 -0.25425,-0.14503 -0.33502,-0.32229 z m -2.71666,-4.65809 -0.22944,-0.35017 0.60032,-0.5428 c 0.33017,-0.29854 1.03276,-0.89627 1.56131,-1.3283 1.01531,-0.8299 1.15837,-0.85274 1.55931,-0.24889 0.17102,0.25756 0.0918,0.34997 -1.32709,1.54713 -0.82993,0.70026 -1.60481,1.2732 -1.72196,1.2732 -0.11715,0 -0.31625,-0.15757 -0.44245,-0.35017 z m -30.403724,-0.79038 c -0.581231,-0.48178 -1.279902,-1.07938 -1.552601,-1.32799 -0.475677,-0.43366 -0.487446,-0.4648 -0.28972,-0.76657 0.113354,-0.173 0.289001,-0.34636 0.390329,-0.38524 0.207851,-0.0798 3.239479,2.37618 3.239479,2.62432 0,0.1449 -0.538507,0.73145 -0.671534,0.73145 -0.03254,0 -0.534722,-0.39419 -1.115953,-0.87597 z m 4.730038,-4.78202 c -0.81907,-1.21735 -1.488793,-2.2844 -1.488278,-2.37123 0.001,-0.17666 0.508868,-0.56974 0.736058,-0.56974 0.0809,0 0.85054,1.05183 1.71034,2.33739 l 1.56326,2.33739 -0.29922,0.2423 c -0.16458,0.13326 -0.39682,0.24116 -0.51609,0.23978 -0.13163,-0.002 -0.8021,-0.87237 -1.70607,-2.21589 z m 20.220836,1.90082 -0.29836,-0.31759 1.48671,-2.22903 c 0.81768,-1.22596 1.54907,-2.26984 1.6253,-2.31972 0.21231,-0.13892 0.90056,0.32151 0.83803,0.56064 -0.10486,0.401 -3.00893,4.62329 -3.17988,4.62329 -0.0954,0 -0.3077,-0.14292 -0.4718,-0.31759 z m -5.6759,-1.63808 c -0.16816,-0.0271 -0.33572,-0.12733 -0.37235,-0.22279 -0.069,-0.17971 0.43549,-3.72847 0.55823,-3.92706 0.11006,-0.17809 0.6782,-0.13026 0.88277,0.0743 0.18134,0.18134 0.0967,1.01693 -0.36493,3.60412 -0.0803,0.45007 -0.22682,0.54822 -0.70372,0.47143 z m -7.23087,-0.45866 c -0.037,-0.16371 -0.18933,-1.03279 -0.33862,-1.93128 -0.3047,-1.83386 -0.25555,-2.04752 0.45502,-1.97808 l 0.40754,0.0398 0.30174,1.91299 c 0.16595,1.05215 0.27227,1.98977 0.23627,2.0836 -0.0363,0.0945 -0.27283,0.1706 -0.53012,0.1706 -0.37377,0 -0.4778,-0.0582 -0.53183,-0.29766 z"
       id="path1" /></g></svg>
